<?xml version="1.0" standalone="no"?>
<!DOCTYPE svg PUBLIC "-//W3C//DTD SVG 20010904//EN"
 "http://www.w3.org/TR/2001/REC-SVG-20010904/DTD/svg10.dtd">
<svg version="1.0" xmlns="http://www.w3.org/2000/svg"
 width="1000.000000pt" height="1000.000000pt" viewBox="0 0 1000.000000 1000.000000"
 preserveAspectRatio="xMidYMid meet">
<metadata>
Created by potrace 1.14, written by Peter Selinger 2001-2017
</metadata>
<g transform="translate(0.000000,1000.000000) scale(0.100000,-0.100000)"
fill="#000000" stroke="none">
<path d="M2947 7894 c-1 -1 -45 -5 -97 -8 -52 -3 -111 -8 -130 -10 -106 -14
-123 -16 -129 -20 -3 -2 -28 -7 -56 -10 -116 -16 -385 -95 -554 -163 -46 -18
-134 -59 -195 -90 -61 -31 -126 -63 -143 -72 -18 -8 -33 -19 -33 -23 0 -4 -5
-8 -10 -8 -6 0 -38 -18 -71 -40 -33 -22 -65 -40 -70 -40 -5 0 -9 -4 -9 -8 0
-5 -16 -17 -35 -28 -19 -10 -35 -22 -35 -26 0 -5 -6 -8 -14 -8 -8 0 -16 -3
-18 -8 -1 -4 -23 -23 -48 -42 -110 -86 -166 -135 -285 -255 -181 -182 -310
-349 -447 -580 -68 -114 -178 -343 -178 -370 0 -8 -3 -15 -7 -17 -12 -5 -94
-249 -87 -259 3 -5 1 -9 -3 -9 -5 0 -17 -37 -28 -82 -23 -103 -22 -96 -30
-137 -3 -19 -7 -37 -9 -40 -4 -6 -14 -69 -22 -136 -2 -16 -6 -46 -8 -65 -24
-185 -25 -540 -2 -680 3 -14 7 -43 10 -65 9 -68 16 -107 37 -200 11 -49 21
-97 22 -105 5 -28 28 -105 58 -197 17 -51 31 -96 31 -100 0 -5 3 -12 8 -18 4
-5 22 -46 39 -90 18 -44 36 -84 42 -90 5 -5 9 -14 9 -20 0 -13 108 -219 144
-275 57 -88 122 -186 131 -197 5 -7 18 -23 27 -35 17 -23 49 -64 118 -149 60
-75 271 -281 360 -352 47 -37 95 -76 108 -87 13 -11 36 -27 53 -37 16 -10 29
-21 29 -25 0 -4 5 -8 11 -8 6 0 25 -11 42 -24 77 -57 271 -164 417 -230 114
-52 328 -130 386 -140 13 -3 27 -7 32 -10 5 -3 19 -7 33 -10 13 -2 53 -11 89
-20 369 -86 822 -94 1190 -20 151 30 335 80 410 111 8 3 20 7 25 8 72 18 355
152 482 228 48 29 99 60 113 68 14 7 27 16 30 19 3 3 46 34 95 70 50 35 96 70
103 77 8 7 30 26 50 41 20 15 45 35 55 45 18 18 20 17 61 -20 73 -65 108 -93
116 -93 5 0 10 -3 12 -8 5 -12 203 -152 215 -152 3 0 14 -6 22 -14 41 -35 304
-170 421 -215 47 -18 95 -37 108 -42 56 -23 72 -28 147 -49 44 -12 87 -25 95
-28 8 -3 20 -6 26 -7 7 -2 45 -11 85 -20 41 -9 88 -19 104 -21 17 -3 41 -7 55
-10 14 -3 39 -7 55 -9 17 -2 50 -7 75 -10 149 -19 417 -25 570 -11 189 16 190
16 320 41 564 108 1086 384 1490 786 112 110 157 160 217 236 15 20 33 41 38
47 6 6 26 34 45 61 19 28 37 52 40 55 8 7 70 103 118 182 51 82 132 241 132
257 0 6 5 11 10 11 6 0 10 4 10 9 0 5 5 22 12 38 6 15 12 31 12 35 1 3 4 10 9
14 4 4 7 15 7 25 0 9 4 19 8 21 9 4 98 269 107 318 3 18 8 37 11 42 5 8 9 25
20 83 3 17 10 50 15 75 11 47 16 80 24 145 3 22 7 51 10 64 8 41 19 249 18
356 0 101 -12 315 -18 325 -2 4 -14 86 -20 145 -1 11 -5 31 -9 45 -3 14 -8 37
-11 53 -5 26 -10 51 -19 92 -3 11 -9 35 -15 53 -5 18 -10 35 -10 37 -1 3 -1 6
-2 8 0 1 -2 9 -4 17 -2 8 -19 62 -38 120 -119 362 -313 703 -572 999 -43 50
-237 244 -276 276 -163 135 -272 214 -413 299 -89 54 -283 153 -366 186 -30
12 -68 28 -85 35 -48 21 -218 77 -241 79 -11 2 -25 6 -31 9 -5 3 -20 8 -34 11
-13 3 -55 12 -94 21 -101 23 -134 29 -220 41 -22 3 -53 7 -70 10 -70 10 -220
18 -360 18 -218 0 -386 -18 -581 -60 -39 -8 -79 -17 -90 -19 -10 -2 -19 -4
-19 -5 0 -1 -7 -3 -15 -5 -177 -43 -364 -112 -548 -202 -170 -83 -408 -228
-420 -255 -2 -5 -8 -8 -13 -8 -10 0 -70 -45 -114 -83 -11 -10 -39 -33 -62 -50
-23 -18 -43 -37 -43 -42 0 -6 55 -67 123 -135 67 -69 149 -159 182 -200 33
-41 65 -80 70 -87 6 -6 28 -37 49 -67 22 -31 43 -56 47 -56 4 0 31 20 61 43
127 104 388 257 533 314 130 50 300 98 430 119 6 1 12 3 15 4 7 2 37 6 140 16
219 21 530 0 688 -45 18 -5 36 -10 40 -11 13 -2 57 -12 70 -16 7 -2 16 -4 20
-5 73 -17 295 -112 407 -174 54 -30 103 -55 107 -55 4 0 8 -3 8 -8 0 -4 17
-16 37 -27 20 -11 41 -25 47 -30 6 -6 29 -24 51 -40 235 -172 463 -437 606
-706 70 -129 152 -332 175 -431 2 -10 6 -26 8 -36 2 -9 9 -35 14 -57 6 -22 13
-56 16 -75 3 -19 7 -44 10 -55 3 -17 11 -77 22 -180 4 -39 4 -278 0 -330 -5
-54 -17 -155 -22 -180 -3 -11 -7 -35 -10 -54 -32 -193 -125 -447 -230 -633
-46 -80 -129 -209 -163 -251 -165 -205 -311 -344 -495 -471 -220 -153 -495
-271 -766 -327 -155 -33 -240 -41 -420 -42 -255 -1 -441 27 -676 102 -137 43
-333 135 -462 215 -72 46 -251 179 -256 191 -2 6 22 52 54 102 85 135 209 390
245 503 10 30 21 60 25 65 8 11 32 96 30 108 0 4 7 21 15 37 8 16 15 33 15 37
0 5 8 46 19 93 11 47 23 99 25 115 3 17 8 39 10 50 2 11 7 43 10 70 4 28 9 57
11 65 17 59 25 511 11 630 -4 36 -9 81 -11 100 -4 37 -9 69 -21 140 -5 25 -9
50 -10 55 -1 6 -3 12 -4 15 -1 3 -3 14 -5 25 -17 118 -100 381 -178 560 -54
127 -154 316 -169 323 -5 2 -8 8 -8 14 0 11 -68 118 -75 118 -5 0 -172 -166
-215 -215 -52 -58 -160 -202 -160 -213 0 -5 -9 -17 -20 -27 -11 -10 -20 -24
-20 -31 0 -7 -3 -14 -7 -16 -10 -4 -45 -66 -84 -147 l-30 -64 -41 79 c-50 97
-152 254 -223 344 -63 78 -62 78 -138 157 -55 56 -57 61 -46 86 7 15 16 27 21
27 4 0 8 5 8 11 0 6 19 36 43 67 23 32 50 68 59 82 9 14 27 37 40 51 13 15 36
44 53 65 16 22 85 95 152 164 110 112 139 150 116 150 -5 0 -24 14 -43 31
-112 99 -301 231 -450 312 -30 16 -62 36 -71 43 -8 8 -18 14 -22 14 -3 0 -43
18 -89 39 -92 43 -264 113 -318 129 -19 6 -66 20 -105 32 -67 20 -222 57 -275
66 -14 2 -41 7 -60 10 -39 8 -43 8 -120 17 -131 16 -184 19 -328 21 -84 1
-153 1 -155 0z m278 -777 c17 -2 55 -8 85 -12 243 -32 520 -127 750 -258 25
-14 60 -33 78 -42 17 -10 32 -21 32 -26 0 -5 5 -9 10 -9 14 0 179 -124 245
-184 55 -50 55 -40 -5 -141 -37 -62 -127 -241 -158 -315 -13 -30 -28 -64 -32
-75 -12 -27 -61 -166 -65 -185 -2 -8 -13 -46 -25 -85 -11 -38 -22 -79 -24 -90
-2 -11 -9 -40 -15 -65 -5 -25 -12 -58 -15 -75 -3 -16 -8 -41 -11 -55 -3 -14
-8 -45 -10 -70 -3 -25 -8 -52 -10 -60 -17 -65 -25 -503 -11 -630 13 -121 17
-153 35 -250 24 -130 28 -151 47 -220 8 -30 17 -62 19 -70 2 -8 14 -46 26 -85
13 -38 23 -72 24 -75 0 -3 3 -9 6 -15 4 -5 12 -28 19 -50 33 -105 210 -459
248 -497 11 -11 26 0 83 60 130 137 255 311 344 480 21 39 42 72 45 72 4 0 17
-23 30 -51 40 -91 145 -255 225 -354 67 -83 96 -115 192 -210 l91 -91 -58 -77
c-121 -162 -178 -228 -312 -362 l-110 -110 -122 125 c-67 69 -155 166 -194
215 -101 124 -87 106 -163 223 -23 34 -42 62 -44 62 -1 0 -25 -20 -51 -45 -63
-58 -210 -170 -295 -222 -81 -51 -211 -118 -221 -115 -5 1 -8 -3 -8 -8 0 -6
-7 -10 -15 -10 -8 0 -23 -4 -33 -10 -43 -24 -192 -78 -267 -96 -5 -2 -37 -10
-69 -19 -33 -8 -75 -18 -94 -21 -19 -3 -44 -8 -56 -10 -23 -5 -61 -10 -151
-20 -113 -13 -490 -4 -516 11 -3 2 -28 7 -55 11 -39 5 -150 31 -249 58 -66 17
-249 89 -253 98 -2 5 -10 8 -17 8 -40 0 -369 200 -443 269 -18 17 -36 31 -38
31 -6 0 -86 75 -157 145 -48 49 -165 187 -197 235 -13 19 -27 37 -30 40 -6 5
-39 57 -87 138 -64 109 -175 353 -187 412 -2 8 -5 22 -8 30 -3 8 -10 31 -16
50 -10 33 -14 48 -27 118 -3 15 -8 34 -11 42 -3 8 -8 33 -10 55 -3 22 -7 47
-10 55 -17 47 -25 411 -11 520 3 30 9 73 11 95 17 141 61 306 128 478 36 94
145 310 159 315 5 2 9 9 9 16 0 7 9 23 20 36 11 13 20 27 20 31 0 4 6 14 13
21 6 7 25 32 41 56 16 23 33 42 39 42 6 0 8 3 4 6 -6 6 12 29 108 133 111 120
204 202 333 292 53 38 103 74 110 79 6 6 12 8 12 4 0 -4 8 0 18 8 35 31 280
153 326 163 6 1 25 8 41 15 61 25 285 85 360 95 17 3 41 7 55 10 14 3 54 7 89
10 35 3 66 6 67 8 5 4 332 -1 369 -6z m1745 -1297 c12 -30 26 -64 31 -75 29
-68 71 -217 98 -350 39 -188 45 -474 16 -695 -14 -104 -71 -338 -99 -405 -22
-51 -41 -100 -41 -105 -1 -3 -10 -25 -22 -50 -14 -30 -22 -38 -22 -24 -1 11
-5 24 -11 30 -13 13 -88 222 -110 309 -29 115 -47 208 -56 300 -3 33 -8 71
-10 85 -5 30 -5 260 0 315 13 133 17 172 21 185 2 8 7 31 11 50 3 19 7 40 8
45 2 6 7 28 11 50 12 55 12 55 15 58 1 1 3 9 5 17 9 44 39 137 47 148 6 6 8
12 5 12 -2 0 6 26 20 58 13 31 29 70 35 85 13 34 19 28 48 -43z"/>
</g>
</svg>
