<?xml version="1.0" encoding="UTF-8" standalone="no"?>
<!DOCTYPE svg PUBLIC "-//W3C//DTD SVG 1.1//EN" "http://www.w3.org/Graphics/SVG/1.1/DTD/svg11.dtd">
<svg width="100%" height="100%" viewBox="0 0 500 300" version="1.1" xmlns="http://www.w3.org/2000/svg" xmlns:xlink="http://www.w3.org/1999/xlink" xml:space="preserve" xmlns:serif="http://www.serif.com/" style="fill-rule:evenodd;clip-rule:evenodd;stroke-linejoin:round;stroke-miterlimit:2;">
    <g transform="matrix(0.319175,0,0,0.319175,4.87355,2.32465)">
        <g transform="matrix(1.38611,0,0,1.38611,-296.535,-601.856)">
            <path d="M768.103,523.795C825.979,472.123 902.317,440.697 985.937,440.697C1166.58,440.697 1313.24,587.357 1313.24,768C1313.24,948.643 1166.58,1095.3 985.937,1095.3C901.811,1095.3 825.056,1063.5 767.034,1011.25C767.355,1011.53 767.677,1011.82 768,1012.11C788.482,993.809 806.649,972.973 822.007,950.096C864.117,986.396 918.923,1008.35 978.816,1008.35C1111.47,1008.35 1219.17,900.653 1219.17,768C1219.17,635.347 1111.47,527.65 978.816,527.65C918.963,527.65 864.19,549.575 822.106,585.818L822.007,585.904C806.647,563.026 788.48,542.189 768,523.888L768.103,523.795ZM766.418,1010.69L766.877,1011.11L766.642,1010.89L766.418,1010.69ZM711.077,945.675C726.624,969.664 745.233,991.5 766.344,1010.62C745.232,991.498 726.624,969.662 711.077,945.675ZM821.375,949.549L821.42,949.588L821.406,949.576L821.375,949.549ZM820.771,949.023L820.831,949.075L820.807,949.054L820.771,949.023ZM820.181,948.505L820.237,948.555L820.209,948.53L820.181,948.505ZM819.598,947.991L819.635,948.024L819.598,947.991ZM710.261,944.409L709.955,943.932C710.302,944.474 710.651,945.018 711.002,945.56L710.651,945.016C710.521,944.814 710.391,944.612 710.261,944.409ZM709.539,943.279L709.839,943.751L709.697,943.528L709.539,943.279ZM709.393,592.951C709.165,593.309 708.938,593.668 708.712,594.028C730.318,614.621 748.103,639.203 760.879,666.585C746.498,697.406 738.466,731.773 738.466,768C738.466,804.015 746.404,838.191 760.623,868.866L760.879,869.415C748.103,896.795 730.321,921.373 708.712,941.972C708.935,942.326 709.159,942.681 709.384,943.035C677.253,892.412 658.634,832.363 658.634,768C658.634,703.637 677.253,643.588 709.393,592.951ZM798.305,926.629L798.326,926.652L798.305,926.629ZM797.781,926.031L797.807,926.061L797.781,926.031ZM797.265,925.439L797.28,925.456L797.265,925.439ZM794.164,921.794L794.187,921.822L794.164,921.794ZM793.634,921.157L793.695,921.23L793.672,921.203L793.634,921.157ZM793.125,920.54L793.202,920.634L793.166,920.59L793.125,920.54ZM792.626,919.931L792.708,920.031L792.662,919.976L792.626,919.931ZM792.134,919.328L792.207,919.418L792.16,919.359L792.134,919.328ZM791.648,918.726L791.694,918.784L791.66,918.742L791.648,918.726ZM789.644,916.208L789.688,916.265L789.679,916.253L789.644,916.208ZM789.122,915.54L789.217,915.663L789.189,915.627L789.122,915.54ZM788.628,914.905L788.747,915.058L788.701,914.999L788.628,914.905ZM788.148,914.281L788.277,914.449L788.215,914.369L788.148,914.281ZM787.675,913.664L787.806,913.836L787.731,913.738L787.675,913.664ZM787.207,913.049L787.332,913.214L787.249,913.105L787.207,913.049ZM786.743,912.436L786.85,912.578L786.769,912.471L786.743,912.436ZM786.282,911.822L786.342,911.902L786.291,911.835L786.282,911.822ZM785.3,910.501L785.348,910.565L785.342,910.557L785.3,910.501ZM784.775,909.786L784.896,909.952L784.87,909.917L784.775,909.786ZM784.298,909.132L784.446,909.336L784.401,909.274L784.298,909.132ZM783.836,908.495L783.998,908.719L783.933,908.63L783.836,908.495ZM783.383,907.865L783.55,908.098L783.468,907.984L783.383,907.865ZM782.934,907.238L783.102,907.473L783.004,907.336L782.934,907.238ZM782.49,906.612L782.654,906.843L782.543,906.687L782.49,906.612ZM782.049,905.986L782.201,906.203L782.084,906.037L782.049,905.986ZM781.61,905.36L781.731,905.533L781.627,905.385L781.61,905.36ZM780.605,903.909L780.737,904.102L780.719,904.076L780.605,903.909ZM780.141,903.231L780.306,903.474L780.268,903.419L780.141,903.231ZM779.698,902.581L779.877,902.845L779.82,902.76L779.698,902.581ZM779.265,901.939L779.45,902.213L779.373,902.1L779.265,901.939ZM778.837,901.3L779.023,901.579L778.929,901.439L778.837,901.3ZM778.412,900.663L778.598,900.943L778.487,900.776L778.412,900.663ZM777.99,900.025L778.173,900.302L778.047,900.111L777.99,900.025ZM777.571,899.386L777.745,899.653L777.609,899.445L777.571,899.386ZM777.154,898.747L777.306,898.981L777.173,898.777L777.154,898.747ZM776.745,898.116L776.749,898.123L776.739,898.108L776.653,897.973L776.745,898.116ZM776.169,897.219L776.333,897.475L776.308,897.437L776.169,897.219ZM775.743,896.551L775.922,896.833L775.879,896.765L775.743,896.551ZM775.329,895.896L775.514,896.189L775.452,896.091L775.329,895.896ZM774.92,895.245L775.106,895.543L775.027,895.416L774.92,895.245ZM774.514,894.595L774.701,894.894L774.604,894.739L774.514,894.595ZM774.112,893.944L774.296,894.243L774.183,894.061L774.112,893.944ZM773.712,893.294L773.891,893.586L773.765,893.381L773.712,893.294ZM773.314,892.642L773.484,892.921L773.349,892.7L773.314,892.642ZM772.919,891.99L773.063,892.228L772.935,892.017L772.919,891.99ZM772.425,891.169L772.531,891.345L772.523,891.333L772.425,891.169ZM771.985,890.43L772.139,890.689L772.113,890.647L771.985,890.43ZM771.583,889.75L771.749,890.032L771.706,889.96L771.583,889.75ZM771.191,889.082L771.36,889.372L771.301,889.271L771.191,889.082ZM770.803,888.417L770.973,888.709L770.898,888.581L770.803,888.417ZM770.419,887.753L770.587,888.044L770.497,887.89L770.419,887.753ZM770.038,887.089L770.201,887.374L770.099,887.197L770.038,887.089ZM769.659,886.425L769.814,886.697L769.703,886.502L769.659,886.425ZM769.283,885.759L769.42,886.003L769.309,885.806L769.283,885.759ZM768.908,885.093L768.997,885.25L768.917,885.109L768.908,885.093ZM768.476,884.317L768.532,884.419L768.528,884.41L768.476,884.317ZM768.045,883.536L768.161,883.747L768.14,883.71L768.045,883.536ZM767.659,882.832L767.791,883.073L767.756,883.008L767.659,882.832ZM767.285,882.144L767.423,882.397L767.373,882.305L767.285,882.144ZM766.918,881.461L767.055,881.717L766.993,881.601L766.918,881.461ZM766.554,880.781L766.688,881.032L766.614,880.895L766.554,880.781ZM766.193,880.102L766.319,880.339L766.239,880.188L766.193,880.102ZM765.835,879.422L765.946,879.633L765.865,879.479L765.835,879.422ZM765.48,878.742L765.559,878.893L765.494,878.769L765.48,878.742ZM764.345,876.534L764.406,876.654L764.394,876.631L764.345,876.534ZM763.971,875.794L764.056,875.963L764.032,875.916L763.971,875.794ZM763.614,875.082L763.707,875.269L763.672,875.199L763.614,875.082ZM763.265,874.379L763.359,874.569L763.315,874.48L763.265,874.379ZM762.921,873.681L763.01,873.862L762.96,873.761L762.921,873.681ZM762.58,872.985L762.657,873.143L762.607,873.04L762.58,872.985ZM762.243,872.29L762.296,872.399L762.257,872.318L762.243,872.29ZM761.974,664.271L761.897,664.431L761.909,664.406L761.974,664.271ZM762.352,663.485L762.225,663.747L762.257,663.682L762.352,663.485ZM762.708,662.753L762.555,663.067L762.607,662.96L762.708,662.753ZM763.057,662.041L762.886,662.39L762.96,662.239L763.057,662.041ZM763.404,661.339L763.217,661.718L763.315,661.519L763.404,661.339ZM763.751,660.644L763.546,661.055L763.672,660.801L763.751,660.644ZM764.098,659.953L763.871,660.405L764.032,660.084L764.098,659.953ZM766.456,655.402C765.683,656.856 764.925,658.318 764.181,659.789C764.923,658.321 765.682,656.857 766.456,655.402ZM813.52,593.578C794.692,611.425 778.746,632.291 766.462,655.391C778.749,632.287 794.693,611.426 813.52,593.578ZM814.026,593.1L813.56,593.54L813.754,593.356L814.026,593.1ZM814.549,592.608L814.107,593.023L814.332,592.811L814.549,592.608ZM709.846,592.238L709.533,592.73L709.697,592.472L709.846,592.238ZM815.082,592.11L814.654,592.51L814.911,592.269L815.082,592.11ZM710.652,590.982C710.522,591.185 710.391,591.387 710.261,591.59L710.228,591.641C710.406,591.364 710.584,591.088 710.762,590.812L710.652,590.982ZM815.623,591.608L815.2,592L815.493,591.728L815.623,591.608ZM816.168,591.105L815.742,591.498L816.076,591.189L816.168,591.105ZM817.245,590.12C817.067,590.282 816.89,590.444 816.712,590.606L816.661,590.652C816.857,590.473 817.053,590.295 817.248,590.116L817.245,590.12ZM759.026,532.211C740.909,549.649 724.793,569.157 711.061,590.35C724.797,569.153 740.914,549.646 759.026,532.211ZM818.082,589.363L817.792,589.624L817.837,589.583L818.082,589.363ZM818.622,588.878L818.364,589.109L818.428,589.052L818.622,588.878ZM819.177,588.383L818.939,588.594L819.02,588.522L819.177,588.383ZM819.737,587.886L819.52,588.078L819.614,587.995L819.737,587.886ZM820.301,587.389L820.109,587.558L820.21,587.469L820.301,587.389ZM820.867,586.893L820.71,587.031L820.807,586.946L820.867,586.893ZM821.436,586.398L821.333,586.488L821.406,586.424L821.436,586.398ZM760.078,531.203C759.905,531.368 759.732,531.534 759.559,531.7L759.455,531.799C759.691,531.572 759.928,531.346 760.164,531.12L760.078,531.203ZM761.098,530.234L760.627,530.68L760.876,530.443L761.098,530.234ZM762.167,529.227L762.608,528.815C762.13,529.261 761.654,529.709 761.179,530.158L761.643,529.719C761.818,529.555 761.992,529.391 762.167,529.227ZM763.198,528.265L762.762,528.67L763.023,528.426L763.198,528.265ZM763.745,527.757L763.31,528.16L763.743,527.758L764.157,527.376L763.745,527.757ZM764.71,526.868L764.3,527.245L764.465,527.093L764.71,526.868ZM765.323,526.306L764.916,526.679L765.188,526.429L765.323,526.306ZM765.864,525.813L765.443,526.197L765.914,525.767L766.234,525.477L765.864,525.813ZM766.844,524.925L766.46,525.272L766.642,525.108L766.844,524.925ZM767.464,524.367L767.087,524.706L767.372,524.45L768,523.888L767.464,524.367Z" style="fill:rgb(56,56,56);"/>
        </g>
        <g transform="matrix(1.38611,0,0,1.38611,-296.535,-601.856)">
            <path d="M708.712,941.972C725.123,968.051 745.117,991.664 768,1012.11L768.92,1011.29C710.911,1063.51 634.17,1095.3 550.063,1095.3C369.42,1095.3 222.761,948.643 222.761,768C222.761,587.357 369.42,440.697 550.063,440.697C633.683,440.697 710.021,472.123 767.897,523.795L768,523.888C756.571,534.122 745.842,545.124 735.935,556.839C726.159,568.398 717.202,580.632 709.097,593.417L708.712,594.028C665.576,552.91 607.185,527.65 542.942,527.65C410.289,527.65 302.592,635.347 302.592,768C302.592,900.653 410.289,1008.35 542.942,1008.35C607.185,1008.35 665.576,983.09 708.712,941.972ZM818.343,955.439C804.043,975.857 787.474,994.57 769,1011.22C787.48,994.567 804.046,975.855 818.343,955.439ZM820.51,952.306L819.829,953.299C819.584,953.653 819.339,954.007 819.095,954.361L818.371,955.399C819.089,954.373 819.803,953.341 820.51,952.306ZM820.883,951.76L820.624,952.139L821.208,951.28L820.883,951.76ZM821.317,584.881C856.698,637.162 877.366,700.187 877.366,768C877.366,835.813 856.698,898.838 821.324,951.109L822.007,950.096C796.326,927.956 775.376,900.488 760.879,869.415C775.259,838.594 783.292,804.227 783.292,768C783.292,731.773 775.259,697.406 760.879,666.585C775.376,635.51 796.329,608.039 822.007,585.904L821.317,584.881ZM709.222,941.484L709.143,941.56L709.222,941.484ZM709.722,941.003L709.631,941.091L709.73,940.995L709.722,941.003ZM710.225,940.517L710.129,940.609L710.237,940.505L710.225,940.517ZM710.726,940.029L710.631,940.121L710.742,940.013L710.726,940.029ZM711.226,939.54L711.134,939.63L711.246,939.52L711.226,939.54ZM711.725,939.049L711.637,939.135L711.748,939.026L711.725,939.049ZM712.222,938.557L712.139,938.639L712.248,938.531L712.222,938.557ZM712.718,938.063L712.64,938.141L712.747,938.034L712.718,938.063ZM713.213,937.568L713.14,937.641L713.244,937.537L713.213,937.568ZM713.706,937.071L713.638,937.139L713.739,937.038L713.706,937.071ZM714.197,936.574L714.136,936.636L714.232,936.538L714.197,936.574ZM714.687,936.074L714.632,936.13L714.723,936.038L714.687,936.074ZM715.176,935.573L715.127,935.624L715.212,935.537L715.176,935.573ZM715.663,935.071L715.62,935.116L715.699,935.034L715.663,935.071ZM716.149,934.568L716.112,934.606L716.183,934.532L716.149,934.568ZM716.633,934.063L716.603,934.095L716.666,934.029L716.633,934.063ZM717.116,933.556L717.092,933.582L717.145,933.526L717.116,933.556ZM717.598,933.049L717.58,933.068L717.622,933.023L717.598,933.049ZM718.096,932.52L718.066,932.552L718.096,932.52ZM718.566,932.019L718.551,932.035L718.566,932.019ZM758.739,873.88L758.737,873.883L758.739,873.88ZM759.052,873.241L759.048,873.25L759.052,873.241ZM759.363,872.602L759.357,872.615L759.363,872.602ZM759.672,871.963L759.664,871.978L759.672,871.963ZM759.978,871.324L759.97,871.34L759.978,871.324ZM760.281,870.685L760.275,870.7L760.281,870.685ZM760.582,870.049L760.578,870.058L760.582,870.049ZM760.573,665.933L760.599,665.988L760.573,665.933ZM760.276,665.303L760.311,665.378L760.266,665.282L760.276,665.303ZM759.972,664.664L760.017,664.759L759.957,664.632L759.972,664.664ZM759.666,664.026L759.718,664.135L759.646,663.983L759.666,664.026ZM759.359,663.389L759.416,663.507L759.332,663.335L759.359,663.389ZM759.049,662.753L759.109,662.876L759.017,662.688L759.049,662.753ZM758.738,662.118L758.8,662.244L758.7,662.042L758.738,662.118ZM758.425,661.484L758.488,661.611L758.382,661.397L758.425,661.484ZM758.11,660.851L758.173,660.978L758.061,660.753L758.11,660.851ZM757.793,660.219L757.856,660.345L757.738,660.109L757.793,660.219ZM757.475,659.588L757.537,659.711L757.413,659.467L757.475,659.588ZM757.155,658.959L757.215,659.078L757.086,658.825L757.155,658.959ZM756.832,658.33L756.892,658.445L756.757,658.185L756.832,658.33ZM756.509,657.702L756.566,657.813L756.427,657.544L756.509,657.702ZM756.183,657.076L756.238,657.181L756.093,656.905L756.183,657.076ZM755.855,656.45L755.908,656.55L755.758,656.266L755.855,656.45ZM755.526,655.826L755.576,655.92L755.421,655.627L755.526,655.826ZM755.195,655.203L755.242,655.29L755.08,654.988L755.195,655.203ZM754.862,654.58L754.906,654.662L754.738,654.349L754.862,654.58ZM754.528,653.959L754.568,654.034L754.392,653.708L754.528,653.959ZM754.192,653.339L754.228,653.407L754.042,653.066L754.192,653.339ZM753.853,652.72L753.887,652.781L753.688,652.42L753.853,652.72ZM753.514,652.103L753.543,652.157L753.327,651.766L753.514,652.103ZM753.172,651.486L753.198,651.533L752.956,651.099L753.172,651.486ZM752.829,650.87L752.851,650.91L752.565,650.4L752.829,650.87ZM750.702,647.149C751.307,648.185 751.908,649.234 752.502,650.288C751.909,649.237 751.309,648.19 750.702,647.149ZM750.376,646.592L750.696,647.139L750.339,646.528L750.376,646.592ZM750.019,645.986L750.31,646.479L749.973,645.908L750.019,645.986ZM749.66,645.38L749.931,645.837L749.606,645.289L749.66,645.38ZM749.299,644.776L749.555,645.204L749.237,644.671L749.299,644.776ZM748.937,644.172L749.18,644.577L748.865,644.054L748.937,644.172ZM748.573,643.57L748.805,643.955L748.492,643.437L748.573,643.57ZM748.207,642.969L748.43,643.336L748.116,642.822L748.207,642.969ZM747.84,642.37L748.054,642.72L747.739,642.206L747.84,642.37ZM747.47,641.771L747.677,642.107L747.359,641.592L747.47,641.771ZM747.099,641.174L747.299,641.496L746.977,640.978L747.099,641.174ZM746.727,640.577L746.92,640.886L746.592,640.364L746.727,640.577ZM746.352,639.982L746.539,640.278L746.206,639.75L746.352,639.982ZM745.976,639.388L746.156,639.672L745.816,639.137L745.976,639.388ZM745.599,638.796L745.772,639.068L745.424,638.523L745.599,638.796ZM745.219,638.204L745.386,638.465L745.029,637.91L745.219,638.204ZM744.838,637.614L744.999,637.863L744.631,637.295L744.838,637.614ZM744.455,637.024L744.61,637.263L744.23,636.679L744.455,637.024ZM712.356,597.576C724.283,609.435 734.975,622.534 744.22,636.664C734.973,622.53 724.282,609.431 712.356,597.576ZM712.222,597.443L712.349,597.569L711.857,597.081L712.222,597.443ZM711.725,596.95L711.833,597.058L711.359,596.591L711.725,596.95ZM711.226,596.46L711.316,596.548L710.864,596.106L711.226,596.46ZM710.726,595.971L710.797,596.04L710.374,595.628L710.726,595.971ZM710.224,595.483L710.278,595.535L709.894,595.163L710.224,595.483ZM709.721,594.997L709.757,595.031L709.432,594.718L709.721,594.997ZM709.217,594.512L709.235,594.529L709.012,594.315L709.217,594.512ZM820.883,584.24L821.223,584.742L820.603,583.83L820.883,584.24ZM769.007,524.791C788.427,542.289 805.741,562.073 820.527,583.718C805.739,562.072 788.425,542.288 769.007,524.791ZM768.628,524.45L768.914,524.707L768,523.888L768.628,524.45Z" style="fill:rgb(56,56,56);"/>
        </g>
    </g>
</svg>
