<?xml version="1.0" encoding="UTF-8" standalone="no"?>
<!DOCTYPE svg PUBLIC "-//W3C//DTD SVG 1.1//EN" "http://www.w3.org/Graphics/SVG/1.1/DTD/svg11.dtd">
<svg width="100%" height="100%" viewBox="0 0 100 100" version="1.1" xmlns="http://www.w3.org/2000/svg" xmlns:xlink="http://www.w3.org/1999/xlink" xml:space="preserve" xmlns:serif="http://www.serif.com/" style="fill-rule:evenodd;clip-rule:evenodd;stroke-linecap:round;stroke-linejoin:round;">
    <rect id="Artboard1" x="0" y="0" width="100" height="100" style="fill:none;"/>
    <g transform="matrix(2.91146,0,0,2.91146,13.6067,16.5182)">
        <path d="M12.5,3L7.8,3C6.12,3 5.28,3 4.638,3.327C4.074,3.615 3.615,4.074 3.327,4.638C3,5.28 3,6.12 3,7.8L3,16.2C3,17.88 3,18.72 3.327,19.362C3.615,19.927 4.074,20.385 4.638,20.673C5.28,21 6.12,21 7.8,21L17,21C17.93,21 18.395,21 18.777,20.898C19.812,20.62 20.62,19.812 20.898,18.777C21,18.395 21,17.93 21,17M19,8L19,2M16,5L22,5M10.5,8.5C10.5,9.605 9.605,10.5 8.5,10.5C7.395,10.5 6.5,9.605 6.5,8.5C6.5,7.395 7.395,6.5 8.5,6.5C9.605,6.5 10.5,7.395 10.5,8.5ZM14.99,11.918L6.531,19.608C6.055,20.041 5.817,20.257 5.796,20.444C5.778,20.607 5.84,20.768 5.963,20.876C6.105,21 6.426,21 7.069,21L16.456,21C17.895,21 18.615,21 19.18,20.758C19.889,20.455 20.455,19.889 20.758,19.18C21,18.615 21,17.895 21,16.456C21,15.972 21,15.73 20.947,15.504C20.881,15.221 20.753,14.955 20.573,14.726C20.43,14.544 20.241,14.393 19.863,14.091L17.066,11.853C16.687,11.55 16.498,11.399 16.29,11.345C16.106,11.298 15.913,11.304 15.733,11.363C15.528,11.429 15.349,11.592 14.99,11.918Z" style="fill:none;fill-rule:nonzero;stroke:black;stroke-width:2px;"/>
    </g>
</svg>
