<?xml version="1.0" encoding="UTF-8" standalone="no"?>
<!DOCTYPE svg PUBLIC "-//W3C//DTD SVG 1.1//EN" "http://www.w3.org/Graphics/SVG/1.1/DTD/svg11.dtd">
<svg width="100%" height="100%" viewBox="0 0 100 100" version="1.1" xmlns="http://www.w3.org/2000/svg" xmlns:xlink="http://www.w3.org/1999/xlink" xml:space="preserve" xmlns:serif="http://www.serif.com/" style="fill-rule:evenodd;clip-rule:evenodd;stroke-linecap:round;stroke-linejoin:round;">
    <rect id="Artboard1" x="0" y="0" width="100" height="100" style="fill:none;"/>
    <g transform="matrix(2.29964,0,0,2.29964,22.4044,22.4044)">
        <g id="Artboard11" serif:id="Artboard1">
            <path d="M12,15.5L7.5,15.5C6.104,15.5 5.407,15.5 4.839,15.672C3.56,16.06 2.56,17.061 2.172,18.339C2,18.907 2,19.604 2,21M16,18L18,20L22,16M14.5,7.5C14.5,9.985 12.485,12 10,12C7.515,12 5.5,9.985 5.5,7.5C5.5,5.015 7.515,3 10,3C12.485,3 14.5,5.015 14.5,7.5Z" style="fill:none;fill-rule:nonzero;stroke:black;stroke-width:2px;"/>
        </g>
    </g>
</svg>
