<?xml version="1.0" encoding="UTF-8" standalone="no"?>
<!DOCTYPE svg PUBLIC "-//W3C//DTD SVG 1.1//EN" "http://www.w3.org/Graphics/SVG/1.1/DTD/svg11.dtd">
<svg width="100%" height="100%" viewBox="0 0 100 100" version="1.1" xmlns="http://www.w3.org/2000/svg" xmlns:xlink="http://www.w3.org/1999/xlink" xml:space="preserve" xmlns:serif="http://www.serif.com/" style="fill-rule:evenodd;clip-rule:evenodd;stroke-linecap:round;stroke-linejoin:round;">
    <rect id="Artboard1" x="0" y="0" width="100" height="100" style="fill:none;"/>
    <g id="Artboard11" serif:id="Artboard1">
        <g transform="matrix(3.00697,0,0,3.00697,13.9467,13.9164)">
            <path d="M18,15.837C19.456,16.568 20.704,17.742 21.615,19.21C21.796,19.5 21.886,19.646 21.917,19.847C21.98,20.256 21.701,20.759 21.32,20.92C21.133,21 20.922,21 20.5,21M16,11.532C17.482,10.796 18.5,9.267 18.5,7.5C18.5,5.733 17.482,4.204 16,3.468M14,7.5C14,9.985 11.985,12 9.5,12C7.015,12 5,9.985 5,7.5C5,5.015 7.015,3 9.5,3C11.985,3 14,5.015 14,7.5ZM2.559,18.938C4.154,16.545 6.669,15 9.5,15C12.331,15 14.846,16.545 16.441,18.938C16.79,19.463 16.965,19.725 16.945,20.06C16.929,20.321 16.758,20.64 16.549,20.798C16.282,21 15.914,21 15.178,21L3.822,21C3.086,21 2.718,21 2.45,20.798C2.242,20.64 2.071,20.321 2.055,20.06C2.035,19.725 2.21,19.463 2.559,18.938Z" style="fill:none;fill-rule:nonzero;stroke:black;stroke-width:2px;"/>
        </g>
    </g>
</svg>
