<?xml version="1.0" encoding="UTF-8" standalone="no"?>
<!DOCTYPE svg PUBLIC "-//W3C//DTD SVG 1.1//EN" "http://www.w3.org/Graphics/SVG/1.1/DTD/svg11.dtd">
<svg width="100%" height="100%" viewBox="0 0 100 100" version="1.1" xmlns="http://www.w3.org/2000/svg" xmlns:xlink="http://www.w3.org/1999/xlink" xml:space="preserve" xmlns:serif="http://www.serif.com/" style="fill-rule:evenodd;clip-rule:evenodd;stroke-linecap:round;stroke-linejoin:round;">
    <rect id="Artboard1" x="0" y="0" width="100" height="100" style="fill:none;"/>
    <g id="Artboard11" serif:id="Artboard1">
        <g transform="matrix(3.23765,0,0,3.23765,11.1482,12.335)">
            <path d="M3,10.565C3,9.991 3,9.704 3.074,9.439C3.14,9.205 3.247,8.984 3.392,8.789C3.555,8.568 3.782,8.392 4.235,8.039L11.018,2.764C11.369,2.491 11.545,2.354 11.739,2.302C11.91,2.255 12.09,2.255 12.261,2.302C12.455,2.354 12.631,2.491 12.982,2.764L19.765,8.039C20.218,8.392 20.445,8.568 20.608,8.789C20.753,8.984 20.86,9.205 20.926,9.439C21,9.704 21,9.991 21,10.565L21,17.8C21,18.92 21,19.48 20.782,19.908C20.59,20.284 20.284,20.59 19.908,20.782C19.48,21 18.92,21 17.8,21L6.2,21C5.08,21 4.52,21 4.092,20.782C3.716,20.59 3.41,20.284 3.218,19.908C3,19.48 3,18.92 3,17.8L3,10.565Z" style="fill:none;fill-rule:nonzero;stroke:black;stroke-width:2px;"/>
        </g>
    </g>
</svg>
