<?xml version="1.0" encoding="UTF-8" standalone="no"?>
<!DOCTYPE svg PUBLIC "-//W3C//DTD SVG 1.1//EN" "http://www.w3.org/Graphics/SVG/1.1/DTD/svg11.dtd">
<svg width="100%" height="100%" viewBox="0 0 100 100" version="1.1" xmlns="http://www.w3.org/2000/svg" xmlns:xlink="http://www.w3.org/1999/xlink" xml:space="preserve" xmlns:serif="http://www.serif.com/" style="fill-rule:evenodd;clip-rule:evenodd;stroke-linecap:round;stroke-linejoin:round;">
    <rect id="Artboard1" x="0" y="0" width="100" height="100" style="fill:none;"/>
    <g transform="matrix(2.83785,0,0,2.83785,15.9457,15.9458)">
        <g id="Artboard11" serif:id="Artboard1">
            <path d="M9.354,21C10.059,21.622 10.986,22 12,22C13.015,22 13.941,21.622 14.646,21M18,8C18,6.409 17.368,4.883 16.243,3.757C15.117,2.632 13.591,2 12,2C10.409,2 8.883,2.632 7.757,3.757C6.632,4.883 6,6.409 6,8C6,11.09 5.22,13.206 4.35,14.605C3.615,15.786 3.248,16.376 3.261,16.541C3.276,16.723 3.315,16.793 3.462,16.902C3.594,17 4.193,17 5.389,17L18.611,17C19.807,17 20.406,17 20.538,16.902C20.685,16.793 20.724,16.723 20.739,16.541C20.752,16.376 20.385,15.786 19.65,14.605C18.78,13.206 18,11.09 18,8Z" style="fill:none;fill-rule:nonzero;stroke:black;stroke-width:2px;"/>
        </g>
    </g>
</svg>
