<?xml version="1.0" encoding="UTF-8" standalone="no"?>
<!DOCTYPE svg PUBLIC "-//W3C//DTD SVG 1.1//EN" "http://www.w3.org/Graphics/SVG/1.1/DTD/svg11.dtd">
<svg width="100%" height="100%" viewBox="0 0 100 100" version="1.1" xmlns="http://www.w3.org/2000/svg" xmlns:xlink="http://www.w3.org/1999/xlink" xml:space="preserve" xmlns:serif="http://www.serif.com/" style="fill-rule:evenodd;clip-rule:evenodd;stroke-linecap:round;stroke-linejoin:round;">
    <rect id="Artboard1" x="0" y="0" width="100" height="100" style="fill:none;"/>
    <g id="Artboard11" serif:id="Artboard1">
        <g transform="matrix(2.93209,0,0,2.93209,14.8149,14.141)">
            <path d="M11,4L7.8,4C6.12,4 5.28,4 4.638,4.327C4.074,4.615 3.615,5.074 3.327,5.638C3,6.28 3,7.12 3,8.8L3,14C3,14.93 3,15.395 3.102,15.777C3.38,16.812 4.188,17.62 5.224,17.898C5.605,18 6.07,18 7,18L7,20.336C7,20.868 7,21.135 7.109,21.272C7.204,21.391 7.348,21.46 7.501,21.46C7.676,21.459 7.884,21.293 8.3,20.96L10.685,19.052C11.173,18.662 11.416,18.467 11.688,18.328C11.928,18.206 12.184,18.116 12.449,18.061C12.748,18 13.06,18 13.684,18L15.2,18C16.88,18 17.72,18 18.362,17.673C18.927,17.385 19.385,16.927 19.673,16.362C20,15.72 20,14.88 20,13.2L20,13M20.121,3.879C21.293,5.05 21.293,6.95 20.121,8.121C18.95,9.293 17.05,9.293 15.879,8.121C14.707,6.95 14.707,5.05 15.879,3.879C17.05,2.707 18.95,2.707 20.121,3.879Z" style="fill:none;fill-rule:nonzero;stroke:black;stroke-width:2px;"/>
        </g>
    </g>
</svg>
