<?xml version="1.0" encoding="UTF-8" standalone="no"?>
<!DOCTYPE svg PUBLIC "-//W3C//DTD SVG 1.1//EN" "http://www.w3.org/Graphics/SVG/1.1/DTD/svg11.dtd">
<svg width="100%" height="100%" viewBox="0 0 100 100" version="1.1" xmlns="http://www.w3.org/2000/svg" xmlns:xlink="http://www.w3.org/1999/xlink" xml:space="preserve" xmlns:serif="http://www.serif.com/" style="fill-rule:evenodd;clip-rule:evenodd;stroke-linecap:round;stroke-linejoin:round;">
    <rect id="Artboard1" x="0" y="0" width="100" height="100" style="fill:none;"/>
    <g id="Artboard11" serif:id="Artboard1">
        <g transform="matrix(3.23765,0,0,3.23765,11.1482,11.1482)">
            <path d="M3,8L15,8M15,8C15,9.657 16.343,11 18,11C19.657,11 21,9.657 21,8C21,6.343 19.657,5 18,5C16.343,5 15,6.343 15,8ZM9,16L21,16M9,16C9,17.657 7.657,19 6,19C4.343,19 3,17.657 3,16C3,14.343 4.343,13 6,13C7.657,13 9,14.343 9,16Z" style="fill:none;fill-rule:nonzero;stroke:black;stroke-width:2px;"/>
        </g>
    </g>
</svg>
